# xmcd
#
# Track frame offsets: 
#        150
#        15531
#        29391
#        43870
#        59817
#        72523
#        94921
#        106601
#        120476
#        149035
#        166708
#        180708
#        198041
#        217408
#        231493
#        248493
#        262218
#        275778
#
# Disc length: 3919 seconds
#
# Revision: 0
# Processed by: cddbd v1.5.2PL0 Copyright (c) Steve Scherf et al.
# Submitted via: ExactAudioCopy v1.3
#
DISCID=180f4d12
DTITLE=Chris Brown - Indigo -Disc2-
DYEAR=2019
DGENRE=R&B
TTITLE0=Juice
TTITLE1=You Like That
TTITLE2=Troubled Waters
TTITLE3=Take a Risk
TTITLE4=Chris Brown;Tory Lanez - Lurkin ft. Tory Lanez
TTITLE5=Trust Issues - Act In
TTITLE6=Cheetah
TTITLE7=Undecided
TTITLE8=BP - No Judgement
TTITLE9=Side Nigga
TTITLE10=Throw It Back
TTITLE11=All on Me
TTITLE12=Chris Brown;Trey Songz - Sexy ft. Trey Songz
TTITLE13=Let’s Smoke
TTITLE14=Chris Brown;Tank - Early 2K ft. Tank
TTITLE15=Dear God
TTITLE16=Part of the Plan
TTITLE17=Play Catch Up
EXTD=
EXTT0=
EXTT1=
EXTT2=
EXTT3=
EXTT4=
EXTT5=
EXTT6=
EXTT7=
EXTT8=
EXTT9=
EXTT10=
EXTT11=
EXTT12=
EXTT13=
EXTT14=
EXTT15=
EXTT16=
EXTT17=
PLAYORDER=
